<svg xmlns="http://www.w3.org/2000/svg" width="921.97" height="1111" viewBox="0 0 921.97 1111">
  <defs>
    <style>
      .cls-1 {
        fill-rule: evenodd;
      }
    </style>
  </defs>
  <path id="administration_.svg" data-name="administration .svg" class="cls-1" d="M997.553,588.984C977.918,694.918,804.364,1118,563.632,1118,337.3,1118,157.2,722.382,129.711,588.984c-17.017-81.086-29.452-113.128-26.179-363.577,0.654-22.887,15.053-24.848,19.634-24.848C297.258,200.559,447.134,7,563.632,7S833.278,200.559,1004.1,200.559c9.81,0,19.63,9.154,19.63,23.54C1028.97,463.432,1017.19,498.743,997.553,588.984ZM921.959,298.606c0-11.177-7.61-18.289-15.22-18.289-132.273,0-250.875-150.059-341.144-150.374V587.676H230.176C255.117,696.307,392.906,993.1,565.31,993.1c0.1,0,.19,0,0.285,0V588.984H900.009c0.654-2.518,1.209-4.825,1.657-6.889C916.886,511.985,926.018,484.55,921.959,298.606Z" transform="translate(-103 -7)"/>
</svg>
