<svg id="Calque_1" data-name="Calque 1" xmlns="http://www.w3.org/2000/svg" viewBox="0 0 212.07 135.47"><defs><style>.cls-1{fill:#191817;}</style></defs><title>AE_noir</title><path class="cls-1" d="M57.79,0h4.94A2.3,2.3,0,0,1,65,1.33l54.91,131.86c.57,1.33,0,2.28-1.33,2.28H110.8a2.3,2.3,0,0,1-2.28-1.33L95.79,103.36A2.05,2.05,0,0,0,93.7,102H26.82a2.3,2.3,0,0,0-2.28,1.33L11.62,134.14a2.05,2.05,0,0,1-2.09,1.33h-8c-1.33,0-1.9-.95-1.33-2.28L55.51,1.33A2.3,2.3,0,0,1,57.79,0ZM31.57,91.77H89c1.33,0,1.9-1,1.33-2.28L61.59,20a1.39,1.39,0,0,0-2.66,0L30.24,89.49C29.67,90.82,30.24,91.77,31.57,91.77Z"/><path class="cls-1" d="M191.36,74.86a1.8,1.8,0,0,0,1.9-1.9V66.31a1.8,1.8,0,0,0-1.9-1.9H139.88a2,2,0,0,1-.5-.09V75a2,2,0,0,1,.5-.09Z"/><path class="cls-1" d="M139.38,10.35a2,2,0,0,1,.5-.09h68.39a1.8,1.8,0,0,0,1.9-1.9V1.9a1.8,1.8,0,0,0-1.9-1.9H139.38Z"/><path class="cls-1" d="M210.17,125.21H139.88a2,2,0,0,1-.5-.09v10.35h70.79a1.8,1.8,0,0,0,1.9-1.9v-6.46A1.8,1.8,0,0,0,210.17,125.21Z"/></svg>