<svg xmlns="http://www.w3.org/2000/svg" width="1114" height="1114" viewBox="0 0 1114 1114">
  <defs>
    <style>
      .cls-1 {
        fill-rule: evenodd;
      }
    </style>
  </defs>
  <path id="aide_.svg" data-name="aide .svg" class="cls-1" d="M573,1120C265.377,1120,16,870.623,16,563S265.377,6,573,6s557,249.377,557,557S880.622,1120,573,1120ZM576,77C307.037,77,89,295.037,89,564s218.037,487,487,487,487-218.037,487-487S844.963,77,576,77ZM734.169,587.893q-49.161,38.942-62.051,62.538T659.221,712H474.285V693.5q0-47.2,10.707-76.651a169.8,169.8,0,0,1,31.877-53.777q21.171-24.33,95.145-85.655,39.42-32.12,39.421-58.887T635.618,376.92q-15.821-14.84-47.938-14.843-34.561,0-57.184,22.873t-28.957,79.815L312.71,441.4q9.729-104.141,75.677-167.659T590.6,210.234q106.092,0,171.309,44.288,88.572,59.86,88.575,159.629,0,41.37-22.874,79.814T734.169,587.893ZM666.035,935.865H467.959V761.149H666.035V935.865Z" transform="translate(-16 -6)"/>
</svg>
