<svg xmlns="http://www.w3.org/2000/svg" width="830" height="885" viewBox="0 0 830 885">
  <defs>
    <style>
      .cls-1 {
        fill-rule: evenodd;
      }
    </style>
  </defs>
  <path id="archiver_.svg" data-name="archiver .svg" class="cls-1" d="M598,1008V626L933.16,433.24,820,367V308l164,96V788ZM883.067,586.75c0-13.807-5.444-28.4-17.4-21.494l-136.832,79c-11.957,6.9-15.767,15.687-15.767,29.494v21c0,13.807,6.31,28.9,18.267,21.994l136.832-79c11.957-6.9,14.9-16.187,14.9-29.994v-21Zm-292.5-55.469c-8.5,11.653-31.258,13.5-40.653,1.844S418.094,357.424,407.8,347.115s1.342-42.581,22.37-42.581,86.976,0.448,86.976.448V145.417a22.39,22.39,0,0,1,22.369-22.411h61.06a22.391,22.391,0,0,1,22.37,22.411V304.982s76.686-.448,91.449-0.448,28.186,32.272,15.659,44.822C719.381,360.052,602.2,517.386,590.57,531.281ZM540,626v382L154,788V404l164-96v59L204.84,433.24Z" transform="translate(-154 -123)"/>
</svg>
