<svg id="Calque_1" data-name="Calque 1" xmlns="http://www.w3.org/2000/svg" viewBox="0 0 900.23 239.1"><defs><style>.cls-1{fill:#191817;}</style></defs><title>artaetas_noir</title><path class="cls-1" d="M125.37,36.26h8.93a2.3,2.3,0,0,1,2.28,1.33l58.71,131.86c.57,1.33,0,2.28-1.33,2.28H174.2a2.3,2.3,0,0,1-2.28-1.33l-10.83-24.32a2.05,2.05,0,0,0-2.09-1.33H100.67a2.3,2.3,0,0,0-2.28,1.33L87.75,170.4a2.05,2.05,0,0,1-2.09,1.33h-20c-1.33,0-1.9-.95-1.33-2.28L123.09,37.59A2.3,2.3,0,0,1,125.37,36.26Zm-16.15,89.11h41.23c1.33,0,1.9-1,1.33-2.28l-20.52-49a1.39,1.39,0,0,0-2.66,0l-20.71,49C107.32,124.42,107.89,125.37,109.22,125.37Z" transform="translate(-64.16 -35.68)"/><path class="cls-1" d="M208.59,169.83V38.16a1.79,1.79,0,0,1,1.9-1.9h52.44c27.17,0,47.69,18.24,47.69,45.79,0,19.57-10.64,32.49-24.13,40.09a1.83,1.83,0,0,0-.57,2.66l23.56,44.65c.76,1.33,0,2.28-1.33,2.28H288.77a2.3,2.3,0,0,1-2.28-1.33L265.4,129a2.48,2.48,0,0,0-2.28-1.33h-31a1.8,1.8,0,0,0-1.9,1.9v40.28a1.8,1.8,0,0,1-1.9,1.9H210.49A1.8,1.8,0,0,1,208.59,169.83Zm54.53-61.56c11.21,0,25.84-8.74,25.84-26.22,0-18.24-13.3-26.41-28.31-26.41h-28.5a1.8,1.8,0,0,0-1.9,1.9v48.83a1.8,1.8,0,0,0,1.9,1.9Z" transform="translate(-64.16 -35.68)"/><path class="cls-1" d="M413.41,38.16V53.74a1.8,1.8,0,0,1-1.9,1.9H380.35a1.8,1.8,0,0,0-1.9,1.9V169.83a1.8,1.8,0,0,1-1.9,1.9H358.88a1.8,1.8,0,0,1-1.9-1.9V57.54a1.8,1.8,0,0,0-1.9-1.9H323.92a1.8,1.8,0,0,1-1.9-1.9V38.16a1.79,1.79,0,0,1,1.9-1.9h87.59A1.79,1.79,0,0,1,413.41,38.16Z" transform="translate(-64.16 -35.68)"/><path class="cls-1" d="M486.36,36.26h4.94a2.3,2.3,0,0,1,2.28,1.33l54.91,131.86c.57,1.33,0,2.28-1.33,2.28h-7.79a2.3,2.3,0,0,1-2.28-1.33l-12.73-30.78a2.05,2.05,0,0,0-2.09-1.33H455.39a2.3,2.3,0,0,0-2.28,1.33L440.19,170.4a2.05,2.05,0,0,1-2.09,1.33h-8c-1.33,0-1.9-.95-1.33-2.28L484.08,37.59A2.3,2.3,0,0,1,486.36,36.26ZM460.14,128h57.38c1.33,0,1.9-1,1.33-2.28L490.16,56.21a1.39,1.39,0,0,0-2.66,0l-28.69,69.54C458.24,127.08,458.81,128,460.14,128Z" transform="translate(-64.16 -35.68)"/><path class="cls-1" d="M744.75,38.16v6.46a1.79,1.79,0,0,1-1.9,1.89H709.6a1.8,1.8,0,0,0-1.9,1.91V169.83a1.8,1.8,0,0,1-1.9,1.9h-7.22a1.8,1.8,0,0,1-1.9-1.9V48.42a1.8,1.8,0,0,0-1.9-1.91H661.53a1.79,1.79,0,0,1-1.9-1.89V38.16a1.79,1.79,0,0,1,1.9-1.9h81.32A1.79,1.79,0,0,1,744.75,38.16Z" transform="translate(-64.16 -35.68)"/><path class="cls-1" d="M791.3,36.26h4.94a2.3,2.3,0,0,1,2.28,1.33l54.91,131.86c.57,1.33,0,2.28-1.33,2.28h-7.79A2.3,2.3,0,0,1,842,170.4L829.3,139.62a2.05,2.05,0,0,0-2.09-1.33H760.33a2.3,2.3,0,0,0-2.28,1.33L745.13,170.4a2.05,2.05,0,0,1-2.09,1.33h-8c-1.33,0-1.9-.95-1.33-2.28L789,37.59A2.3,2.3,0,0,1,791.3,36.26ZM765.08,128h57.38c1.33,0,1.9-1,1.33-2.28L795.1,56.21a1.39,1.39,0,0,0-2.66,0l-28.69,69.54C763.18,127.08,763.75,128,765.08,128Z" transform="translate(-64.16 -35.68)"/><path class="cls-1" d="M867.49,141.33c-.38-1.14.76-1.33,1.9-1.9l7-1.52c1.33-.57,1,0,2.09,1.9,2.66,5.32,16.34,22.23,40.85,22.23,22,0,34.2-9.12,34.2-22.8,0-24.32-33.63-27.93-51.68-34.2-20-6.65-33.63-14.44-33.63-35,0-18,17.29-34.4,44.08-34.4,27,0,42.18,15.21,46.93,29.84.38,1.14-.57,1.71-1.9,1.9l-7.22,1c-1.33.19-1.14-.38-1.9-1.9C944.06,57.54,934.75,46,912.52,46c-22.42,0-33.25,13.68-33.25,24.51,0,19,19.19,23.56,41.23,29.83,25.08,7,43.89,17.1,43.89,38.19,0,22.61-19.19,33.82-45.22,33.82C892,172.3,874.14,155.77,867.49,141.33Z" transform="translate(-64.16 -35.68)"/><path class="cls-1" d="M619.92,111.12a1.8,1.8,0,0,0,1.91-1.9v-6.65a1.8,1.8,0,0,0-1.91-1.9H568.45a2,2,0,0,1-.5-.09V111.2a2.61,2.61,0,0,1,.5-.08Z" transform="translate(-64.16 -35.68)"/><path class="cls-1" d="M568,46.6a2,2,0,0,1,.5-.09h68.39a1.79,1.79,0,0,0,1.9-1.89V38.16a1.79,1.79,0,0,0-1.9-1.9H568Z" transform="translate(-64.16 -35.68)"/><path class="cls-1" d="M638.74,161.47H568.45a2,2,0,0,1-.5-.09v10.35h70.79a1.8,1.8,0,0,0,1.9-1.9v-6.46A1.8,1.8,0,0,0,638.74,161.47Z" transform="translate(-64.16 -35.68)"/><path class="cls-1" d="M206.21,229h-3a.66.66,0,0,0-.69.69v40.45a.66.66,0,0,0,.69.69h3a.66.66,0,0,1,.7.69v2.35a.65.65,0,0,1-.7.69h-11.4a.65.65,0,0,1-.69-.69v-2.35a.65.65,0,0,1,.69-.69h3a.66.66,0,0,0,.69-.69V229.7a.66.66,0,0,0-.69-.69h-3a.65.65,0,0,1-.69-.69V226a.65.65,0,0,1,.69-.69h11.4a.66.66,0,0,1,.7.69v2.35A.65.65,0,0,1,206.21,229Z" transform="translate(-64.16 -35.68)"/><path class="cls-1" d="M248.25,226v2.35a.65.65,0,0,1-.69.69h-12.1a.65.65,0,0,0-.69.69v44.18a.65.65,0,0,1-.69.69h-2.63a.65.65,0,0,1-.69-.69V229.7a.66.66,0,0,0-.69-.69H218a.65.65,0,0,1-.69-.69V226a.65.65,0,0,1,.69-.69h29.59A.66.66,0,0,1,248.25,226Z" transform="translate(-64.16 -35.68)"/><path class="cls-1" d="M261.59,222.51h2.35c.49,0,.69.28.56.76l-4.36,12.52a.81.81,0,0,1-.83.55h-1.45a.53.53,0,0,1-.55-.76l3.52-12.44A.76.76,0,0,1,261.59,222.51Z" transform="translate(-64.16 -35.68)"/><path class="cls-1" d="M276.53,263.51c-.14-.41.27-.48.69-.69l2.56-.55c.48-.21.34,0,.76.69,1,1.93,5.94,8.09,14.86,8.09,8,0,12.45-3.32,12.45-8.3,0-8.85-12.24-10.16-18.81-12.44-7.26-2.42-12.24-5.26-12.24-12.72,0-6.57,6.29-12.52,16-12.52s15.35,5.53,17.08,10.86c.14.41-.21.62-.69.69l-2.63.34c-.48.07-.41-.14-.69-.69-1.52-3.25-4.91-7.47-13-7.47s-12.1,5-12.1,8.92c0,6.92,7,8.58,15,10.86,9.12,2.56,16,6.22,16,13.89,0,8.23-7,12.31-16.46,12.31A20.48,20.48,0,0,1,276.53,263.51Z" transform="translate(-64.16 -35.68)"/><path class="cls-1" d="M378.23,226v2.35a.65.65,0,0,1-.69.69h-12.1a.66.66,0,0,0-.7.69v44.18a.65.65,0,0,1-.69.69h-2.62a.65.65,0,0,1-.7-.69V229.7A.65.65,0,0,0,360,229h-12.1a.65.65,0,0,1-.69-.69V226a.66.66,0,0,1,.69-.69h29.6A.66.66,0,0,1,378.23,226Z" transform="translate(-64.16 -35.68)"/><path class="cls-1" d="M400.7,229h-3.05a.66.66,0,0,0-.69.69v40.45a.66.66,0,0,0,.69.69h3.05a.66.66,0,0,1,.69.69v2.35a.65.65,0,0,1-.69.69H389.29a.65.65,0,0,1-.69-.69v-2.35a.65.65,0,0,1,.69-.69h3a.65.65,0,0,0,.69-.69V229.7a.65.65,0,0,0-.69-.69h-3a.65.65,0,0,1-.69-.69V226a.65.65,0,0,1,.69-.69H400.7a.66.66,0,0,1,.69.69v2.35A.65.65,0,0,1,400.7,229Z" transform="translate(-64.16 -35.68)"/><path class="cls-1" d="M456,225.28h2.21a.66.66,0,0,1,.69.69v47.91a.65.65,0,0,1-.69.69h-2.56a.65.65,0,0,1-.69-.69v-39c0-.62-.55-.83-.83-.35l-18,30.49c-.27.49-.69.49-1,0l-17.91-30.42c-.35-.48-.83-.34-.83.28v39a.65.65,0,0,1-.69.69h-2.63a.65.65,0,0,1-.69-.69V226a.66.66,0,0,1,.69-.69h2.14a1,1,0,0,1,.9.41l19,32.29a.52.52,0,0,0,1,0l18.95-32.29A1,1,0,0,1,456,225.28Z" transform="translate(-64.16 -35.68)"/><path class="cls-1" d="M496.52,271.53v2.35a.65.65,0,0,1-.69.69H470.66a.65.65,0,0,1-.69-.69V226a.66.66,0,0,1,.69-.69h24.48a.66.66,0,0,1,.69.69v2.35a.65.65,0,0,1-.69.69H474.67a.66.66,0,0,0-.69.69V248a.66.66,0,0,0,.69.7H489a.65.65,0,0,1,.7.69v2.42a.66.66,0,0,1-.7.69H474.67a.66.66,0,0,0-.69.69v16.94a.66.66,0,0,0,.69.69h21.16A.66.66,0,0,1,496.52,271.53Z" transform="translate(-64.16 -35.68)"/><path class="cls-1" d="M539.25,254.59v19.29a.65.65,0,0,1-.7.69h-2.62a.65.65,0,0,1-.69-.69V226a.65.65,0,0,1,.69-.69h24.61a.66.66,0,0,1,.69.69v2.35a.65.65,0,0,1-.69.69h-20.6a.65.65,0,0,0-.69.69v19.78a.65.65,0,0,0,.69.69H554a.65.65,0,0,1,.69.69v2.35a.65.65,0,0,1-.69.69h-14.1A.65.65,0,0,0,539.25,254.59Z" transform="translate(-64.16 -35.68)"/><path class="cls-1" d="M613.5,249.89c0,14.24-9.47,24.89-23.72,24.89s-23.71-10.65-23.71-24.89,9.47-24.82,23.71-24.82S613.5,235.65,613.5,249.89Zm-43.42,0c0,12.38,7.88,21.16,19.7,21.16s19.71-8.78,19.71-21.16-7.88-21.09-19.71-21.09S570.08,237.52,570.08,249.89Z" transform="translate(-64.16 -35.68)"/><path class="cls-1" d="M621.8,273.88V226a.65.65,0,0,1,.69-.69h17.07c9.89,0,16.73,5.88,16.73,15.9a15.33,15.33,0,0,1-9,14.38.66.66,0,0,0-.21,1l8.78,17.21c.28.49,0,.83-.48.83h-2.84a.92.92,0,0,1-.83-.48l-8.43-16.52a.91.91,0,0,0-.83-.49h-16a.65.65,0,0,0-.69.69v16.11a.65.65,0,0,1-.7.69h-2.62A.65.65,0,0,1,621.8,273.88ZM641,253.35a11.76,11.76,0,0,0,11.33-12.17c0-8.92-6.15-12.17-13.06-12.17H626.5a.65.65,0,0,0-.69.69v23a.65.65,0,0,0,.69.69Z" transform="translate(-64.16 -35.68)"/><path class="cls-1" d="M714,225.28h1.79a.84.84,0,0,1,.83.48l20,48c.21.49,0,.83-.48.83h-2.84a.83.83,0,0,1-.82-.48l-4.64-11.2a.73.73,0,0,0-.76-.48H702.69a.82.82,0,0,0-.83.48l-4.71,11.2a.74.74,0,0,1-.75.48h-2.91c-.48,0-.69-.34-.48-.83l20.12-48A.83.83,0,0,1,714,225.28Zm-9.55,33.39h20.88c.49,0,.7-.34.49-.83l-10.44-25.3a.5.5,0,0,0-1,0l-10.44,25.3C703.72,258.33,703.93,258.67,704.41,258.67Z" transform="translate(-64.16 -35.68)"/><path class="cls-1" d="M744.93,273.88V226a.66.66,0,0,1,.69-.69H762.7c9.88,0,16.73,5.88,16.73,15.9a15.32,15.32,0,0,1-9,14.38.68.68,0,0,0-.21,1L779,273.74c.28.49,0,.83-.48.83h-2.84a.89.89,0,0,1-.82-.48l-8.44-16.52a.9.9,0,0,0-.83-.49h-16a.66.66,0,0,0-.69.69v16.11a.65.65,0,0,1-.69.69h-2.63A.65.65,0,0,1,744.93,273.88Zm19.22-20.53a11.77,11.77,0,0,0,11.34-12.17c0-8.92-6.16-12.17-13.07-12.17H749.63a.66.66,0,0,0-.69.69v23a.66.66,0,0,0,.69.69Z" transform="translate(-64.16 -35.68)"/><path class="cls-1" d="M818,226v2.35a.65.65,0,0,1-.69.69h-12.1a.65.65,0,0,0-.69.69v44.18a.65.65,0,0,1-.7.69h-2.62a.65.65,0,0,1-.69-.69V229.7a.66.66,0,0,0-.7-.69H787.73a.65.65,0,0,1-.7-.69V226a.66.66,0,0,1,.7-.69h29.59A.66.66,0,0,1,818,226Z" transform="translate(-64.16 -35.68)"/></svg>