<svg xmlns="http://www.w3.org/2000/svg" width="1114" height="1114" viewBox="0 0 1114 1114">
  <defs>
    <style>
      .cls-1 {
        fill-rule: evenodd;
      }
    </style>
  </defs>
  <path id="attente_.svg" data-name="attente .svg" class="cls-1" d="M567,1124C259.377,1124,10,874.623,10,567S259.377,10,567,10s557,249.377,557,557S874.623,1124,567,1124ZM570,81C301.037,81,83,299.037,83,568s218.037,487,487,487,487-218.037,487-487S838.963,81,570,81ZM306,864a20,20,0,0,1,20-20h24.091A311.812,311.812,0,0,1,348,808c0-108.094,54.825-201,133.815-241.831C401.339,525.511,344,432.392,344,324a311.812,311.812,0,0,1,2.091-36H326a20,20,0,0,1-20-20V228H836v40a20,20,0,0,1-20,20H791.909A311.812,311.812,0,0,1,794,324c0,108.093-53.725,201-132.145,241.83C741.765,606.487,798,699.607,798,808a311.812,311.812,0,0,1-2.091,36H816a20,20,0,0,1,20,20v40H306V864Zm92.324-20H743.676A279.8,279.8,0,0,0,746,808c0-103.286-55.4-190-131-214.233V538.233C690.6,514,746,427.286,746,324a279.8,279.8,0,0,0-2.324-36H398.324A279.8,279.8,0,0,0,396,324c0,101.983,55.4,187.82,130,213.3V594.7C451.4,620.18,396,706.017,396,808A279.8,279.8,0,0,0,398.324,844ZM571,624c18.5,0,142,32.137,142,186H431C431,648.137,552.5,624,571,624ZM455.557,436H686.443c-27.508,45.944-100.5,77.5-115.443,77.5S483.065,481.944,455.557,436Z" transform="translate(-10 -10)"/>
</svg>
