<svg xmlns="http://www.w3.org/2000/svg" width="1118.97" height="835" viewBox="0 0 1118.97 835">
  <defs>
    <style>
      .cls-1 {
        fill-rule: evenodd;
      }
    </style>
  </defs>
  <path id="attribut_.svg" data-name="attribut .svg" class="cls-1" d="M1123.06,817.7c-17.56,16.979-40.16,41.153-50.92,49.882s-25.46,3.429-36.02-7.482-79.135-79.7-142.238-142.7a236.29,236.29,0,0,1-118.576,31.707c-128.955,0-233.493-106.213-233.493-235.694S646.351,278.965,775.306,278.965,1008.8,383.931,1008.8,513.413a234.088,234.088,0,0,1-31.941,118.434c50.971,51.68,136.261,135.966,144.961,144.7S1131.72,809.325,1123.06,817.7ZM773.443,337.577c-97.059,0-175.741,77.757-175.741,175.212s78.682,176.459,175.741,176.459,174.5-79,174.5-176.459S870.5,337.577,773.443,337.577ZM425.854,195.523L74.724,323.3l351.13,127.78,92.685-33.306a270.261,270.261,0,0,0-16.88,72.738q-21.214,7.994-42.965,16.235c0.421,125.237-.421,254.308,0,379.545,80.653-44.195,156.954-85.046,216.7-117.041a271.028,271.028,0,0,0,94.583,17.788C694.674,828.69,541.041,913.5,512,929.3c-44.207,24.038-56.144,36.7-86.142,36.7S386.7,951.134,190.925,845.81C32.1,759.148,26.517,761.467,15.36,737.007c-3.246-7.072-5.351-34.1-5.351-34.1s0.3-362.136.3-379.341,1.96-21.806,7.695-34.423,22.778-19.676,22.778-19.676l167.827-62.559S330.445,161.834,391.9,141.152c18.147-6.107,31.028-10.087,33.954-10.152,5.983-.118,19.989,3.873,41.159,11.076,26.059,8.867,62.975,22.6,109.145,39.53,47.941,17.577,119.463,43.724,162.183,60.355q3.6,1.4,7.239,2.754a270,270,0,0,0-100.261,30.154ZM73,714L393,886V508L72,388Z" transform="translate(-10 -131)"/>
</svg>
