<svg xmlns="http://www.w3.org/2000/svg" width="864.095" height="864.125" viewBox="0 0 864.095 864.125">
  <defs>
    <style>
      .cls-1 {
        fill-rule: evenodd;
      }
    </style>
  </defs>
  <path id="contact_.svg" data-name="contact .svg" class="cls-1" d="M311.994,117.374c15.272-9.718,36.1-15.271,58.311-4.165S492.479,228.442,505.668,293c0.695,20.131-3.47,52.063-14.577,63.17s-61.782,61.781-74.971,80.524-14.577,42.344-4.859,70.111c9.7,27.727,41.888,69.225,101.421,128.784,59.563,59.536,102.1,92.758,129.825,102.462,27.767,9.719,51.369,8.33,70.112-4.859s69.417-63.864,80.524-74.971,43.038-15.271,63.169-14.577C920.87,656.833,1025,756.794,1036.1,779.007s5.56,43.039-4.16,58.311S883.385,1021.97,691.1,956.021C551.039,915.806,480.234,843.732,392.909,756.4s-159.4-158.13-199.618-298.19C127.345,265.927,296.723,127.093,311.994,117.374Z" transform="translate(-178.125 -107.063)"/>
</svg>
