<?xml version="1.0" standalone="no"?>
<!DOCTYPE svg PUBLIC "-//W3C//DTD SVG 20010904//EN"
 "http://www.w3.org/TR/2001/REC-SVG-20010904/DTD/svg10.dtd">
<svg version="1.0" xmlns="http://www.w3.org/2000/svg"
 width="1134.000000pt" height="1134.000000pt" viewBox="0 0 1134.000000 1134.000000"
 preserveAspectRatio="xMidYMid meet">

<g transform="translate(0.000000,1134.000000) scale(0.100000,-0.100000)"
fill="#000000" stroke="none">
<path d="M7665 9918 c-284 -32 -630 -132 -921 -268 -377 -176 -780 -485 -1000
-765 l-57 -72 -75 85 c-340 382 -903 734 -1420 887 -828 245 -1639 100 -2337
-419 -643 -479 -1030 -1092 -1120 -1779 -19 -151 -20 -453 0 -618 57 -488 252
-996 561 -1460 198 -296 159 -256 2338 -2436 1122 -1124 2046 -2043 2052
-2043 10 0 2612 2582 3630 3603 572 575 693 714 902 1046 87 138 237 438 286
571 124 340 176 617 176 943 0 292 -33 498 -122 765 -138 415 -392 807 -762
1177 -453 452 -946 704 -1521 780 -128 17 -475 19 -610 3z"/>
</g>
</svg>
