<svg xmlns="http://www.w3.org/2000/svg" width="998.38" height="995" viewBox="0 0 998.38 995">
  <defs>
    <style>
      .cls-1 {
        fill: #000001;
        fill-rule: evenodd;
      }
    </style>
  </defs>
  <path id="parametrage_.svg" data-name="parametrage .svg" class="cls-1" d="M1063.35,507.4l0.01,123.961-146.983,22.72A358.89,358.89,0,0,1,874.31,757.221l87.781,119.9L874.409,964.8,755.45,877.7a359.1,359.1,0,0,1-105.875,44.313L627,1068H503L480.425,922.012a358.928,358.928,0,0,1-106.614-44.788L253.949,964.985l-87.674-87.677,88.748-121.223a358.863,358.863,0,0,1-41.285-101.537L65.012,631.557,65.02,507.6l149.424-23.118a358.93,358.93,0,0,1,42-100.926L167.947,262.684l87.673-87.677,120.569,88.278A358.951,358.951,0,0,1,480.783,219.9L503.5,73h124l22.756,147.154A358.92,358.92,0,0,1,752.745,262.64l119.993-87.852,87.681,87.681-87.67,119.745a358.9,358.9,0,0,1,42.817,102.319ZM567.5,297C418.107,297,297,418.107,297,567.5S418.107,838,567.5,838,838,716.893,838,567.5,716.893,297,567.5,297ZM569,743A174,174,0,1,1,743,569,174,174,0,0,1,569,743Zm-2.546-249.117A73.844,73.844,0,1,0,640.3,567.727,73.844,73.844,0,0,0,566.454,493.883Z" transform="translate(-65 -73)"/>
</svg>
