<svg xmlns="http://www.w3.org/2000/svg" width="1114" height="1114" viewBox="0 0 1114 1114">
  <defs>
    <style>
      .cls-1 {
        fill-rule: evenodd;
      }
    </style>
  </defs>
  <path id="erreur_.svg" data-name="erreur .svg" class="cls-1" d="M567,1124C259.377,1124,10,874.623,10,567S259.377,10,567,10s557,249.377,557,557S874.623,1124,567,1124ZM570,81C301.037,81,83,299.037,83,568s218.037,487,487,487,487-218.037,487-487S838.963,81,570,81ZM767.111,886.319L565.586,684.794,365.475,884.905,245.266,764.7,445.378,564.586l-198.7-198.7L366.889,245.681l198.7,198.7L765.7,244.266,885.905,364.475,685.794,564.586,887.319,766.111Z" transform="translate(-10 -10)"/>
</svg>
