<?xml version="1.0" standalone="no"?>
<!DOCTYPE svg PUBLIC "-//W3C//DTD SVG 20010904//EN"
 "http://www.w3.org/TR/2001/REC-SVG-20010904/DTD/svg10.dtd">
<svg version="1.0" xmlns="http://www.w3.org/2000/svg"
 width="1134.000000pt" height="1134.000000pt" viewBox="0 0 1134.000000 1134.000000"
 preserveAspectRatio="xMidYMid meet">

<g transform="translate(0.000000,1134.000000) scale(0.100000,-0.100000)"
fill="#000000" stroke="none">
<path d="M5503 10315 c-157 -44 -280 -150 -376 -325 -91 -164 -577 -1140 -856
-1720 -139 -289 -257 -529 -261 -533 -4 -4 -263 -44 -576 -87 -1029 -144
-1894 -272 -2064 -306 -41 -9 -105 -28 -142 -44 -395 -165 -491 -642 -188
-940 89 -88 992 -950 1430 -1364 168 -159 347 -330 399 -380 l94 -91 -11 -65
c-5 -36 -103 -614 -216 -1286 -219 -1298 -224 -1332 -191 -1457 56 -216 249
-376 491 -406 86 -11 193 -2 259 23 91 33 570 273 1745 876 201 103 428 219
506 259 l141 71 299 -154 c1379 -708 2041 -1039 2118 -1061 84 -24 267 -17
356 14 190 66 334 221 370 398 25 120 11 224 -209 1523 -116 685 -210 1252
-209 1260 2 8 181 184 398 390 420 399 1113 1058 1395 1328 237 227 282 302
292 492 7 114 -6 183 -51 276 -72 149 -216 268 -386 318 -111 33 -781 136
-1990 306 -355 49 -660 93 -678 96 -32 5 -37 12 -102 147 -383 803 -978 2002
-1070 2157 -61 102 -93 137 -184 201 -112 79 -156 92 -331 96 -109 2 -164 -1
-202 -12z"/>
</g>
</svg>
