<svg xmlns="http://www.w3.org/2000/svg" width="1127.156" height="1015" viewBox="0 0 1127.156 1015">
  <defs>
    <style>
      .cls-1 {
        fill-rule: evenodd;
      }
    </style>
  </defs>
  <path id="groupe_.svg" data-name="groupe .svg" class="cls-1" d="M565.818,41c6.143,0,7.944,2,12.13,4.111C658.506,85.694,828.935,171.638,833.56,173.888s11.249,4.88,13.849,9.48,1,20.132,1,20.132V473.953L1115.29,608.409s11.11,4.512,13.71,10.912c1.8,4.6,2,14.5,2,22.3V896c0,13.2-.4,14.752-3,19.752S1114,925,1114,925s-197.41,98.71-246,123c-8.918,4.46-13.091,8-19.591,8s-8.946-2.98-19.116-8.09c-60.083-30.15-264.6-132.279-264.6-132.279S360.3,1017.71,302.988,1046.47c-9.188,4.61-9.268,6.29-17.518,6.29s-7.814-1.4-16.284-5.63c-42.574-21.26-170.525-84.679-250.821-125.363C14.8,919.96,10.6,918.71,7,913.51S4,884.3,4,893.5v-249c0-14.012-1.2-23.421,3-29.421s5.557-5.3,13.6-9.373c43.487-21.986,184.9-93.463,263.744-132.874V205c0-4.391-.857-19.038,2-23.753s11.137-8.745,17.011-11.532c44.107-22.134,171.2-84.921,250.812-124.87C558.191,42.828,559.675,41,565.818,41Zm0,41.719c-63.539,32.133-194,97.529-194,97.529l194,98.649,194-98.649S629.731,114.852,565.818,82.719ZM805.8,249.75l-194,95.286V540.092l194-98.649V249.75ZM285.47,515.43L90.347,614.079,285.47,712.728l195.122-98.649Zm562.939,2.242L653.287,615.2l195.122,98.649s130.088-66.89,194-98.649C978.123,582.694,848.409,517.672,848.409,517.672ZM331.447,777.747V972.8l194-97.528V683.582Zm561.818,2.242V975.045l192.315-96.967,0.56-193.375Z" transform="translate(-3.844 -41)"/>
</svg>
