<svg xmlns="http://www.w3.org/2000/svg" width="1114" height="1114" viewBox="0 0 1114 1114">
  <defs>
    <style>
      .cls-1 {
        fill-rule: evenodd;
      }
    </style>
  </defs>
  <path id="modifier_.svg" data-name="modifier .svg" class="cls-1" d="M573,1120C265.377,1120,16,870.622,16,563S265.377,6,573,6s557,249.377,557,557S880.622,1120,573,1120ZM811.69,474.849H758.5V474.9q-0.981-.053-1.976-0.054a36.576,36.576,0,0,0-35.291,27V623.074a36.564,36.564,0,0,0,35.778,29.077q0.995,0,1.976-.054v0.054h53.163A144.925,144.925,0,1,1,667.3,797.075c0-.257.009-0.513,0.01-0.771H667.3V744.656h-0.053q0.052-.982.053-1.977a36.558,36.558,0,0,0-36.548-36.567q-0.995,0-1.976.054v-0.054H529v0.054q-0.982-.053-1.976-0.054a36.559,36.559,0,0,0-36.549,36.567q0,0.995.054,1.977h-0.054V796.3h-0.009c0,0.258.009,0.514,0.009,0.771a144.851,144.851,0,1,1-144.85-144.924h53.163V652.1q0.981,0.053,1.976.054a36.559,36.559,0,0,0,35.127-26.472V503.926a36.579,36.579,0,0,0-35.8-29.077q-1,0-1.977.054v-0.054h-53.19A144.925,144.925,0,1,1,489.849,329.925c0,0.257-.008.513-0.009,0.77h0.009v51.649H489.9q-0.053.983-.054,1.977a36.568,36.568,0,0,0,36.567,36.567q1,0,1.977-.054v0.054h99.828v-0.054q0.982,0.053,1.977.054a36.567,36.567,0,0,0,36.567-36.567q0-.995-0.053-1.977h0.053V330.7h0.01c0-.257-0.01-0.513-0.01-0.77A144.925,144.925,0,1,1,811.69,474.849Zm0.074,411.359a89.518,89.518,0,1,0-89.472-89.518A89.5,89.5,0,0,0,811.764,886.208ZM345.31,240.792a89.518,89.518,0,1,0,89.518,89.518A89.519,89.519,0,0,0,345.31,240.792Zm0.7,466.38a89.518,89.518,0,1,0,89.472,89.518A89.495,89.495,0,0,0,346.007,707.172ZM666.765,513.393h-0.053q0.053-.982.053-1.977A36.567,36.567,0,0,0,630.2,474.849q-0.995,0-1.977.054v-0.054H528.393V474.9q-0.981-.053-1.977-0.054a36.572,36.572,0,0,0-35.944,29.868v108.89h0.054q-0.053.981-.054,1.976a36.559,36.559,0,0,0,36.549,36.568q0.995,0,1.976-.054v0.054h99.777V652.1q0.981,0.053,1.976.054a36.557,36.557,0,0,0,36.015-30.371V513.393ZM811.3,240.792a89.518,89.518,0,1,0,89.518,89.518A89.519,89.519,0,0,0,811.3,240.792Z" transform="translate(-16 -6)"/>
</svg>
