<svg xmlns="http://www.w3.org/2000/svg" width="717" height="646" viewBox="0 0 717 646">
  <defs>
    <style>
      .cls-1 {
        fill-rule: evenodd;
      }
    </style>
  </defs>
  <path id="nav-fermer_.svg" data-name="nav-fermer .svg" class="cls-1" d="M752.175,567L981.683,796.442a24.988,24.988,0,0,1,0,35.345l-50.912,50.9a25.005,25.005,0,0,1-35.355,0L648.23,635.569l-50.911-50.9a24.987,24.987,0,0,1,0-35.346l50.911-50.9L895.416,251.316a25.005,25.005,0,0,1,35.355,0l50.912,50.9a24.988,24.988,0,0,1,0,35.345Zm-318,0L663.683,796.442a24.988,24.988,0,0,1,0,35.345l-50.912,50.9a25.005,25.005,0,0,1-35.355,0L330.23,635.569l-50.911-50.9a24.987,24.987,0,0,1,0-35.346l50.911-50.9L577.416,251.316a25.005,25.005,0,0,1,35.355,0l50.912,50.9a24.988,24.988,0,0,1,0,35.345Z" transform="translate(-272 -244)"/>
</svg>
