<svg xmlns="http://www.w3.org/2000/svg" width="717" height="646.188" viewBox="0 0 717 646.188">
  <defs>
    <style>
      .cls-1 {
        fill-rule: evenodd;
      }
    </style>
  </defs>
  <path id="nav-ouvrir_.svg" data-name="nav-ouvrir .svg" class="cls-1" d="M981.775,584.678l-50.911,50.911L683.678,882.775a25,25,0,0,1-35.356,0l-50.911-50.912a25,25,0,0,1,0-35.355L826.919,567,597.411,337.492a25,25,0,0,1,0-35.356l50.911-50.911a25,25,0,0,1,35.356,0L930.864,498.411l50.911,50.911A25,25,0,0,1,981.775,584.678Zm-318-35.356a25,25,0,0,1,0,35.356l-50.911,50.911L365.678,882.775a25,25,0,0,1-35.356,0l-50.911-50.912a25,25,0,0,1,0-35.355L508.919,567,279.411,337.492a25,25,0,0,1,0-35.356l50.911-50.911a25,25,0,0,1,35.356,0L612.864,498.411Z" transform="translate(-272.094 -243.906)"/>
</svg>
