<svg xmlns="http://www.w3.org/2000/svg" width="1111" height="1001" viewBox="0 0 1111 1001">
  <defs>
    <style>
      .cls-1 {
        fill-rule: evenodd;
      }
    </style>
  </defs>
  <path id="obligatoire_.svg" data-name="obligatoire .svg" class="cls-1" d="M1096.98,1059H40.019C25.1,1059,13,1045.81,13,1029.53c0,0,528-941.906,534.481-958.41s31.342-18.862,38.907,1.179S1124,1029.53,1124,1029.53C1124,1045.81,1111.9,1059,1096.98,1059ZM581.109,239.668c-5.511-14.6-23.62-12.882-28.345-.859S161.749,937.016,161.749,937.016c0,11.858,8.813,21.47,19.684,21.47H951.464c10.871,0,19.684-9.612,19.684-21.47C971.148,937.016,586.621,254.267,581.109,239.668ZM521.09,758.826L493.005,528.6v-114.6H641.991V528.6l-28.77,230.222H521.09ZM637.2,917H498.142V793.823H637.2V917Z" transform="translate(-13 -58)"/>
</svg>
