<svg xmlns="http://www.w3.org/2000/svg" width="1089" height="1090" viewBox="0 0 1089 1090">
  <defs>
    <style>
      .cls-1 {
        fill-rule: evenodd;
      }
    </style>
  </defs>
  <path id="pin_.svg" data-name="pin .svg" class="cls-1" d="M1064.43,443.953C1015.96,517.479,893.333,624.333,885,633s-23.333,10.667-36,0c-3.988-3.358-15.876-14.585-30.7-29.9l-428.276,436A209.022,209.022,0,0,1,229.5,1114C113.8,1114,20,1020.2,20,904.5A208.538,208.538,0,0,1,59.075,782.642a14.928,14.928,0,0,1,4.174-7.629l11.172-11.374q5.414-5.957,11.277-11.48L522.658,307.322C506.783,291.492,496.133,279.7,495,278c-3.333-5-5.333-14-1-20S608.023,130.524,671.788,80.941A269.828,269.828,0,0,1,838,24c149.669,0,271,121.331,271,271A269.762,269.762,0,0,1,1064.43,443.953ZM230.5,1030A127.5,127.5,0,1,0,103,902.5,127.5,127.5,0,0,0,230.5,1030ZM727,439c2.333-15,38-71,38-71s-51,33-63,37-29.667,9-59-4c-18.815-8.185-40.34-23.153-61.044-39.9L252.707,696.282a209.587,209.587,0,0,1,184.487,180.66L765.4,542.824C748.943,521.57,735.408,500.389,731,484,725,466,724.667,454,727,439ZM859,189a88,88,0,1,0,88,88A88,88,0,0,0,859,189Z" transform="translate(-20 -24)"/>
</svg>
