<svg xmlns="http://www.w3.org/2000/svg" width="1050" height="1013" viewBox="0 0 1050 1013">
  <defs>
    <style>
      .cls-1 {
        fill-rule: evenodd;
      }
    </style>
  </defs>
  <path id="prix-composant_.svg" data-name="prix-composant .svg" class="cls-1" d="M1081.21,845.206c0,7.974-.81,15.662-6.19,24.433s-12.76,14.752-21.94,19.935S825.847,1015.17,792.84,1033.1c-38.434,20.89-48.813,31.9-74.894,31.9S683.9,1052.08,513.692,960.554C375.6,885.243,370.751,887.258,361.051,866c-0.938-2.043-1.766-6-2.454-10.379l52.237-54.936v44.323c40.073,22.51,153.658,82.124,279.4,151.094,0.366-108.89-.365-221.112,0-330-38.888-14.754-76.677-28.947-111.524-41.963L619.16,581.6l98.786,35.932,308.214-110.7-291.3-105.268-1.973-59.2c0.346,0.1.713,0.207,1.069,0.31,6.976-10.2,47.976-73.838,47.976-161.267,0-36.218-19.456-65.918-32.881-75.982-40.582-29.786-82.2-17.73-110.024,21.528-23.006,31.415-33.667,51.965-60.091,124.951l-0.027-.017c-3.344,9.979-8.676,26.794-13.024,40.639a40.46,40.46,0,1,1-41.558-15.278L535.9,238.225c-0.4-.006-0.8-0.023-1.2-0.023a78.476,78.476,0,1,0,69.091,41.388c0.383-1.345.755-2.8,1.1-4.473,7.8-48.98,26.855-85.063,34.146-101.31h31.616V416.952c0,7.44-3.32,22.319-17.7,36.724-8.853,8.865-361.689,360.918-361.689,360.918L32,551.188S381.675,199.768,391.159,190.27s21.774-16.463,27.823-16.463H568.21c20.829-49.982,52.8-97.194,94.848-115.24,21.627-9.282,61.134-9.712,92.319,5.065,29.449,13.955,50.981,42.02,59.439,70.917,5.3,18.181,21.593,122.88-44.282,220.313,20.786,7.387,47.014,17.1,78.09,28.49,41.682,15.275,103.865,38,141.007,52.45s78.079,24.178,85.389,42.119c6.48,12.626,6.98,19.769,6.98,27.909C1082,512.534,1081.21,837.232,1081.21,845.206ZM420.879,400.34c-23.08-14.567-52.641-25.176-92.32-10.134-30.667,13.143-40.944,23.491-51.85,31.668-6.448-5.2-13.911-12.667-13.911-12.667l-27.466,17.829s11.925,11.77,17.349,17.639c-1.265,1.266-3.794,3.8-5.059,5.067-5.058-4.643-15.176-15.2-15.176-15.2s-18.549,10.98-27.822,16.467c5.51,6.766,23.4,22.93,23.4,22.93s-18.337,22.784-25.293,65.852c-2.213,17.417,3.167,99.127,102.436,126.638,10.117-10.552,32.249-31.976,34.146-34.192-56.909,3.958-108.918-43.2-98.643-88.647,5.217-20.584,15.176-40.523,15.176-40.523l64.5,64.585,27.822-19-72.084-72.183s4.215-3.377,5.058-3.8c23.605,23.215,70.82,70.918,70.82,70.918l26.558-19L303.9,451.144s38.1-31.328,71.452-30.537,61.836,27.74,66.394,84.991L472.1,479C467.29,434.965,435.738,410.474,420.879,400.34ZM1026.16,561.647C984.894,577.07,871.347,618.61,746.5,665.906c0.366,108.833-.366,221,0,329.83C872.357,926.8,986.05,867.218,1026.16,844.721V561.647Z" transform="translate(-32 -52)"/>
</svg>
