<svg xmlns="http://www.w3.org/2000/svg" width="1118" height="1118" viewBox="0 0 1118 1118">
  <defs>
    <style>
      .cls-1 {
        fill: #000001;
        fill-rule: evenodd;
      }
    </style>
  </defs>
  <path id="profil_.svg" data-name="profil .svg" class="cls-1" d="M572,1121C263.273,1121,13,870.727,13,562S263.273,3,572,3s559,250.273,559,559S880.727,1121,572,1121ZM574.263,75.421c-267.48,0-484.316,216.836-484.316,484.316a482.044,482.044,0,0,0,83.83,272.4C176.63,728.56,270.754,709.714,405.3,669.125c45.168,56.576,102.3,96.4,164.435,96.4S689.008,725.7,734.178,669.117c136.651,41.219,231.611,62.215,231.611,167.857,0,2.719-.083,5.425-0.208,8.124a482.123,482.123,0,0,0,93-285.361C1058.58,292.257,841.743,75.421,574.263,75.421Zm-3.395,603.316c-119.366,0-216.131-187.292-216.131-306.658S451.5,155.947,570.868,155.947,787,252.713,787,372.079,690.235,678.737,570.868,678.737Z" transform="translate(-13 -3)"/>
</svg>
