<svg xmlns="http://www.w3.org/2000/svg" width="950" height="792.125" viewBox="0 0 950 792.125">
  <defs>
    <style>
      .cls-1 {
        fill-rule: evenodd;
      }
    </style>
  </defs>
  <path id="dossier-vente_.svg" data-name="dossier-vente .svg" class="cls-1" d="M934,974.5s-11.193,25-25,25h-9.014a25.117,25.117,0,0,1-4.986.5H129a25,25,0,0,1-25-25V233a25,25,0,0,1,25-25s279.39-.133,296.39-0.133,71.8,29.082,71.8,29.082l79.954,38.75s49.723,24.519,76.723,24.519S874.5,301.5,874.5,301.5a25,25,0,0,1,25,25l0.059,71.5H832.368l-0.036-10.583a20.843,20.843,0,0,0-20.855-20.83s-173.27-1.068-195.793-1.068-64-23.43-64-23.43l-93.7-44.864s-45.714-24.232-59.895-24.232-207.24.111-207.24,0.111A20.842,20.842,0,0,0,170,293.934V912.17A20.842,20.842,0,0,0,190.854,933s49.97,8.5,65.97-30S350,460.5,350,460.5s11.193-25,25-25h654a25,25,0,0,1,25,25ZM846.235,738.466C832.559,726.829,696.427,522.543,683.94,509.389s-42.734-11.073-54.031,2.082C614.449,527.154,485.292,723.863,471.1,735.936c-16.649,14.166,1.19,60.151,20.812,60.151s78.146-.506,78.146-0.506v119.3c0,13.971,13.31,25.3,29.73,25.3H714.574c16.42,0,29.731-11.325,29.731-25.3v-119.3s44.253,0.506,72.2.506S859.911,750.1,846.235,738.466Z" transform="translate(-104 -207.875)"/>
</svg>
