<svg xmlns="http://www.w3.org/2000/svg" width="902" height="1107" viewBox="0 0 902 1107">
  <defs>
    <style>
      .cls-1 {
        fill-rule: evenodd;
      }
    </style>
  </defs>
  <path id="suppression_.svg" data-name="suppression .svg" class="cls-1" d="M986.417,300.068H147.583A31.587,31.587,0,0,1,116,268.476V192.654a31.587,31.587,0,0,1,31.583-31.592H454.566V128.205H454.6a112.408,112.408,0,0,1,224.8,0h0.032v32.857H986.417A31.587,31.587,0,0,1,1018,192.654v75.822A31.587,31.587,0,0,1,986.417,300.068ZM952.308,1092.41A31.584,31.584,0,0,1,920.725,1124h-702.4a31.584,31.584,0,0,1-31.583-31.59V378.418H952.308V1092.41ZM428.036,508.579a31.588,31.588,0,0,0-31.582-31.593H363.608a31.588,31.588,0,0,0-31.583,31.593V996.366a31.592,31.592,0,0,0,31.583,31.594h32.846a31.591,31.591,0,0,0,31.582-31.594V508.579Zm186.97,0a31.588,31.588,0,0,0-31.583-31.593H550.577a31.588,31.588,0,0,0-31.583,31.593V996.366a31.592,31.592,0,0,0,31.583,31.594h32.846a31.592,31.592,0,0,0,31.583-31.594V508.579Zm190.759,0a31.588,31.588,0,0,0-31.583-31.593H741.336a31.589,31.589,0,0,0-31.583,31.593V996.366a31.592,31.592,0,0,0,31.583,31.594h32.846a31.592,31.592,0,0,0,31.583-31.594V508.579Z" transform="translate(-116 -17)"/>
</svg>
