<svg xmlns="http://www.w3.org/2000/svg" width="1128" height="723" viewBox="0 0 1128 723">
  <defs>
    <style>
      .cls-1 {
        fill-rule: evenodd;
      }
    </style>
  </defs>
  <path id="visibilite_.svg" data-name="visibilite .svg" class="cls-1" d="M566.409,926C167.18,926,3,564.5,3,564.5S173.086,203,569.953,203,1131,564.5,1131,564.5,965.639,926,566.409,926ZM353.8,456.4A108.076,108.076,0,1,0,461.877,348.309,108.085,108.085,0,0,0,353.8,456.4Zm477.52-66.7a282.283,282.283,0,0,1,18.564,100.963C849.886,646.927,723.233,773.6,567,773.6S284.114,646.927,284.114,490.664a282.155,282.155,0,0,1,20.492-105.875C178.957,459.085,122.3,566.272,122.3,566.272S250.374,817.314,561.815,817.314,1002.25,566.272,1002.25,566.272,949.926,463.714,831.322,389.7Z" transform="translate(-3 -203)"/>
</svg>
